<?xml version="1.0" encoding="utf-8"?>
<svg version="1.1" id="Layer_1" x="0px" y="0px" viewBox="0 0 80 80" style="enable-background:new 0 0 80 80;" xmlns="http://www.w3.org/2000/svg">
  <style type="text/css">
	.st0{fill:none;stroke:#000000;stroke-width:3;stroke-miterlimit:10;}
	.st1{font-family:'MyriadPro-Regular';}
	.st2{font-size:32.8529px;}
</style>
  <rect x="2.924" y="6.875" width="70.813" height="71.976" transform="matrix(1, 0, -0.000459, 1, 1.706139, -3.4582)" rx="3.912" ry="3.912" style="fill: rgba(0, 68, 102, 0.28);"/>
  <path class="st0" d="M 68.077 77.396 L 11.73 77.396 C 6.686 77.396 2.556 72.41 2.556 66.317 L 2.556 13.415 C 2.556 7.322 6.686 2.336 11.73 2.336 L 68.077 2.336 C 73.123 2.336 77.252 7.322 77.252 13.415 L 77.252 66.317 C 77.252 72.41 73.123 77.396 68.077 77.396 Z" style="stroke-width: 5; stroke: rgb(0, 68, 102);"/>
  <path d="M 68.886 65.913 L 63.688 65.913 C 61.397 65.913 59.485 64.001 59.485 61.709 L 59.485 58.118 C 59.485 55.823 61.397 53.913 63.688 53.913 L 65.064 53.913 L 65.064 39.162 L 40.684 39.162 L 40.684 53.913 L 42.593 53.913 C 44.888 53.913 46.798 55.823 46.798 58.118 L 46.798 61.709 C 46.798 64.001 44.888 65.913 42.593 65.913 L 37.397 65.913 C 35.106 65.913 33.194 64.001 33.194 61.709 L 33.194 58.118 C 33.194 55.823 35.106 53.913 37.397 53.913 L 38.773 53.913 L 38.773 39.162 L 14.544 39.162 L 14.544 53.913 L 16.227 53.913 C 18.52 53.913 20.43 55.823 20.43 58.118 L 20.43 61.709 C 20.43 64.001 18.52 65.913 16.227 65.913 L 11.03 65.913 C 8.737 65.913 6.826 64.001 6.826 61.709 L 6.826 58.118 C 6.826 55.823 8.737 53.913 11.03 53.913 L 12.711 53.913 L 12.711 38.321 C 12.711 37.939 12.94 37.556 13.399 37.404 L 13.705 37.327 C 13.782 37.327 13.857 37.252 14.011 37.252 L 39.002 37.252 L 39.002 27.086 L 30.749 27.086 C 28.455 27.086 26.544 25.175 26.544 22.883 L 26.544 17.379 C 26.544 15.088 28.455 13.176 30.749 13.176 L 48.556 13.176 C 50.849 13.176 52.76 15.088 52.76 17.379 L 52.76 22.883 C 52.76 25.175 50.849 27.086 48.556 27.086 L 40.684 27.086 L 40.684 37.252 L 65.983 37.252 C 66.517 37.252 66.9 37.633 66.9 38.17 L 66.9 53.837 L 68.809 53.837 C 71.103 53.837 73.013 55.746 73.013 58.04 L 73.013 61.709 C 73.09 64.001 71.179 65.913 68.886 65.913 Z" style=""/>
  <rect x="35.262" y="55.463" width="9.36" height="8.521" rx="2.5" ry="2.5" style="fill: rgb(255, 131, 255);"/>
</svg>