<?xml version="1.0" encoding="utf-8"?>
<svg version="1.1" id="Layer_1" x="0px" y="0px" viewBox="0 0 80 80" style="enable-background:new 0 0 80 80;" xmlns="http://www.w3.org/2000/svg">
  <style type="text/css">
	.st0{fill:none;stroke:#000000;stroke-width:3;stroke-miterlimit:10;}
	.st1{font-family:'MyriadPro-Regular';}
	.st2{font-size:32.8529px;}
</style>
  <rect x="2.924" y="6.875" width="70.813" height="71.976" transform="matrix(1, 0, -0.000459, 1, 1.809498, -3.354841)" rx="3.912" ry="3.912" style="fill: rgba(0, 239, 247, 0.1);"/>
  <path class="st0" d="M 68.077 77.396 L 11.73 77.396 C 6.686 77.396 2.556 72.41 2.556 66.317 L 2.556 13.415 C 2.556 7.322 6.686 2.336 11.73 2.336 L 68.077 2.336 C 73.123 2.336 77.252 7.322 77.252 13.415 L 77.252 66.317 C 77.252 72.41 73.123 77.396 68.077 77.396 Z" style="stroke-width: 5; stroke: rgb(0, 115, 131);"/>
  <g style="" transform="matrix(0.975035, 0, 0, 0.975035, 6.00567, 5.364738)">
    <path d="M55.37012,22.54028c-1.40527,0-2.75635,0.24658-4.02441,0.73438c-2.50509-2.85227-6.44861-3.66024-9.71338-2.39893   c-2.15967-6.55225-8.33496-11.05566-15.3125-11.05566c-7.90332,0-14.6582,5.78564-15.89795,13.53223   C6.11328,25.05298,3.25,29.23462,3.25,33.90015c0,6.26953,5.10059,11.37012,11.37012,11.37012h4.71973v2.06982   c0,0.36621,0.26416,0.67871,0.62549,0.73975l3.2959,0.55469c0.15674,0.44531,0.33545,0.87402,0.5332,1.28125l-1.94531,2.72852   c-0.21289,0.29883-0.17871,0.70752,0.08105,0.96631l3.98975,3.98047c0.25977,0.25977,0.66895,0.29346,0.96631,0.0791l2.7207-1.9458   c0.41162,0.19824,0.84229,0.37695,1.28711,0.53418l0.5459,3.29395c0.05957,0.36182,0.37305,0.62744,0.73975,0.62744h5.64014   c0.36621,0,0.67871-0.26416,0.73975-0.62549l0.55518-3.2959c0.43701-0.15527,0.86475-0.33398,1.27881-0.53418l2.71973,1.9458   c0.29834,0.21436,0.70703,0.18066,0.96631-0.0791l3.99023-3.98047c0.25977-0.25879,0.29395-0.66748,0.08105-0.96631   l-1.94531-2.72852c0.19727-0.40674,0.37549-0.83496,0.5332-1.28076l3.30518-0.55518   c0.36133-0.06055,0.62598-0.37354,0.62598-0.73975v-2.06982h4.7002c6.2749,0,11.37988-5.10059,11.37988-11.37012   C66.75,27.63647,61.64502,22.54028,55.37012,22.54028z M49.16992,46.70532l-3.12402,0.5249   c-0.27832,0.04688-0.50684,0.24561-0.59131,0.51465c-0.2124,0.67529-0.47656,1.30762-0.78467,1.87939   c-0.13574,0.25146-0.1167,0.55859,0.04932,0.7915l1.84131,2.58203l-3.09082,3.08301l-2.57324-1.84082   c-0.23193-0.16602-0.53809-0.1875-0.78857-0.05225c-0.59521,0.31641-1.229,0.58105-1.8833,0.78711   c-0.26904,0.08447-0.46777,0.3125-0.51465,0.59082l-0.52441,3.11426h-4.37012l-0.51563-3.1123   c-0.0459-0.27881-0.24512-0.5083-0.51465-0.59277c-0.67139-0.21143-1.30811-0.47607-1.89307-0.78711   c-0.25146-0.13477-0.55713-0.11377-0.78857,0.05225l-2.57373,1.84082l-3.09033-3.08301l1.84131-2.58203   c0.16602-0.23291,0.18506-0.54004,0.04932-0.7915c-0.30908-0.57373-0.57324-1.20605-0.78418-1.87891   c-0.08447-0.26904-0.31299-0.46826-0.59131-0.51514l-3.11475-0.52441c0-0.11759,0-4.50981,0-4.36133l3.11475-0.5249   c0.27832-0.04688,0.50635-0.24609,0.59082-0.51514c0.20996-0.66797,0.47461-1.30469,0.78662-1.89209   c0.13379-0.25146,0.11328-0.55664-0.05225-0.78809l-1.83936-2.57275l3.08936-3.08203l2.57422,1.84033   c0.23389,0.16846,0.54443,0.18701,0.7959,0.04785c0.58203-0.31836,1.21289-0.58057,1.87549-0.7793   c0.27441-0.08203,0.47803-0.31348,0.52441-0.59619l0.51611-3.12207h4.36914l0.5249,3.12402   c0.04736,0.28174,0.25049,0.51221,0.52441,0.59424c0.64697,0.19434,1.2749,0.45654,1.86572,0.77979   c0.25244,0.1377,0.56201,0.12012,0.79639-0.04834l2.57324-1.84033l3.08984,3.08203l-1.83936,2.57275   c-0.16553,0.23145-0.18604,0.53662-0.05225,0.78809c0.31055,0.58496,0.57568,1.22217,0.78662,1.89258   c0.08447,0.26904,0.31299,0.46777,0.59082,0.51465l3.12451,0.5249C49.16992,42.44452,49.16992,46.85381,49.16992,46.70532z    M55.37012,43.77026h-4.7002v-2.06006c0-0.36621-0.26465-0.67871-0.62549-0.73975l-3.30566-0.55566   c-0.15723-0.44482-0.33594-0.87549-0.53467-1.2876l1.9458-2.72119c0.21387-0.29834,0.17969-0.70801-0.08008-0.96729   l-3.99023-3.97998c-0.26025-0.2583-0.66797-0.29199-0.96631-0.07861l-2.71582,1.94238   c-0.41553-0.20459-0.84521-0.38379-1.28369-0.53564l-0.5542-3.30078c-0.06055-0.36133-0.37354-0.62598-0.73975-0.62598h-5.64014   c-0.36719,0-0.68018,0.26563-0.73975,0.62793l-0.54541,3.29834c-0.4458,0.15381-0.87744,0.33301-1.29199,0.53662l-2.7168-1.94287   c-0.29639-0.21338-0.70605-0.17969-0.96582,0.0791l-3.98975,3.97998c-0.25977,0.25928-0.29395,0.66846-0.08008,0.9668   l1.9458,2.72119c-0.19922,0.41309-0.37793,0.84375-0.53467,1.28809l-3.2959,0.55518   c-0.36133,0.06104-0.62549,0.37354-0.62549,0.73975v2.06006h-4.71973c-5.44238,0-9.87012-4.42773-9.87012-9.87012   c0-4.18213,2.65137-7.91602,6.59717-9.29199c0.26758-0.09326,0.45996-0.32959,0.49658-0.61035   c0.94727-7.22754,7.1709-12.67773,14.47607-12.67773c6.59521,0,12.3999,4.43506,14.11572,10.78564   c0.05908,0.21875,0.21436,0.39941,0.42236,0.49072c0.20703,0.09131,0.44531,0.08252,0.64697-0.02051   c2.85115-1.47964,6.75955-0.87605,9.021,2.06152c0.21045,0.27393,0.58252,0.36963,0.8999,0.22754   c1.22607-0.54736,2.55322-0.82471,3.94434-0.82471c5.44775,0,9.87988,4.42334,9.87988,9.85986   C65.25,39.34253,60.81787,43.77026,55.37012,43.77026z" style="fill: rgb(60, 88, 136);"/>
    <path d="M35.00391,36.73022c-4.29932,0-7.79688,3.49414-7.79688,7.78906c0,4.29932,3.49756,7.79736,7.79688,7.79736   s7.79688-3.49805,7.79688-7.79736C42.80078,40.22437,39.30322,36.73022,35.00391,36.73022z M35.00391,50.81665   c-3.47217,0-6.29688-2.8252-6.29688-6.29736c0-3.46777,2.82471-6.28906,6.29688-6.28906s6.29688,2.82129,6.29688,6.28906   C41.30078,47.99146,38.47607,50.81665,35.00391,50.81665z" style="fill: rgb(60, 88, 136);"/>
  </g>
</svg>