<?xml version="1.0" encoding="utf-8"?>
<svg version="1.1" id="Layer_1" x="0px" y="0px" viewBox="0 0 80 80" style="enable-background:new 0 0 80 80;" xmlns="http://www.w3.org/2000/svg" xmlns:bx="https://boxy-svg.com">
  <style type="text/css">
	.st0{fill:none;stroke:#000000;stroke-width:3;stroke-miterlimit:10;}
	.st1{font-family:'MyriadPro-Regular';}
	.st2{font-size:32.8529px;}
</style>
  <rect x="2.924" y="6.875" width="70.813" height="71.976" transform="matrix(1, 0, -0.000459, 1, 1.809498, -3.354841)" rx="3.912" ry="3.912" style="fill: rgba(217, 233, 147, 0.28);"/>
  <path class="st0" d="M 68.077 77.396 L 11.73 77.396 C 6.686 77.396 2.556 72.41 2.556 66.317 L 2.556 13.415 C 2.556 7.322 6.686 2.336 11.73 2.336 L 68.077 2.336 C 73.123 2.336 77.252 7.322 77.252 13.415 L 77.252 66.317 C 77.252 72.41 73.123 77.396 68.077 77.396 Z" style="stroke-width: 5; stroke: rgb(3, 101, 41);"/>
  <path d="M 45.153 41.801 C 45.096 41.801 44.98 41.801 44.923 41.801 L 44.923 26.926 C 44.923 22.848 37.284 19.632 27.462 19.632 C 17.699 19.632 10.003 22.848 10.003 26.926 L 10.003 55.413 C 10.003 59.492 17.699 62.708 27.462 62.708 C 30.794 62.708 34.011 62.306 36.825 61.617 C 36.825 61.617 36.825 61.617 36.825 61.617 C 38.949 63.799 41.879 65.12 45.153 65.12 C 51.585 65.12 56.812 59.893 56.812 53.46 C 56.755 47.028 51.527 41.801 45.153 41.801 Z M 27.462 20.781 C 37.227 20.781 43.774 23.939 43.774 26.926 C 43.774 29.913 37.227 33.071 27.462 33.071 C 17.699 33.071 11.151 29.913 11.151 26.926 C 11.151 23.997 17.699 20.781 27.462 20.781 Z M 11.151 29.568 C 13.621 32.325 19.939 34.22 27.462 34.22 C 34.986 34.22 41.305 32.325 43.774 29.568 L 43.774 36.403 C 43.774 39.39 37.227 42.548 27.462 42.548 C 17.699 42.548 11.151 39.39 11.151 36.403 C 11.151 36.46 11.151 29.568 11.151 29.568 Z M 11.151 39.102 C 13.621 41.859 19.939 43.755 27.462 43.755 C 34.986 43.755 41.305 41.859 43.774 39.102 L 43.774 41.916 C 38.663 42.548 34.527 46.454 33.666 51.565 C 31.713 51.91 29.588 52.024 27.462 52.024 C 17.699 52.024 11.151 48.866 11.151 45.879 C 11.151 45.937 11.151 39.102 11.151 39.102 Z M 27.462 61.559 C 17.699 61.559 11.151 58.4 11.151 55.413 L 11.151 48.578 C 13.621 51.336 19.939 53.231 27.462 53.231 C 29.588 53.231 31.597 53.058 33.551 52.771 C 33.551 53.001 33.551 53.231 33.551 53.46 C 33.551 56.16 34.47 58.63 36.02 60.64 C 33.379 61.214 30.449 61.559 27.462 61.559 Z M 45.153 63.972 C 39.352 63.972 34.642 59.261 34.642 53.46 C 34.642 53.001 34.642 52.599 34.699 52.14 C 35.331 46.913 39.811 42.951 45.096 42.951 C 50.896 42.951 55.606 47.66 55.606 53.46 C 55.606 59.261 50.896 63.972 45.153 63.972 Z M 46.301 59.147 C 43.544 59.722 40.787 58.228 39.754 55.643 C 38.834 53.288 39.524 50.589 41.477 49.038 L 41.305 50.072 C 41.248 50.359 41.477 50.704 41.764 50.704 C 41.821 50.704 41.821 50.704 41.821 50.704 C 42.109 50.704 42.338 50.474 42.395 50.187 L 42.74 48.005 C 42.74 47.833 42.74 47.717 42.625 47.603 C 42.511 47.488 42.395 47.373 42.223 47.373 L 40.04 47.028 C 39.754 46.971 39.409 47.201 39.409 47.488 C 39.352 47.775 39.581 48.119 39.868 48.119 L 40.501 48.235 C 38.318 50.13 37.571 53.231 38.663 55.988 C 39.754 58.688 42.281 60.353 45.096 60.353 C 45.555 60.353 46.071 60.295 46.531 60.181 C 46.818 60.124 47.048 59.836 46.99 59.492 C 46.932 59.261 46.646 59.032 46.301 59.147 Z M 51.585 50.877 C 50.321 47.717 47.048 45.937 43.717 46.626 C 43.429 46.684 43.2 46.971 43.257 47.315 C 43.314 47.603 43.602 47.833 43.947 47.775 C 46.703 47.201 49.46 48.694 50.494 51.279 C 51.413 53.576 50.781 56.103 49.001 57.711 L 49.116 56.735 C 49.173 56.447 48.944 56.103 48.656 56.103 C 48.369 56.045 48.024 56.275 48.024 56.562 L 47.679 58.745 C 47.679 58.918 47.679 59.032 47.795 59.147 C 47.909 59.261 48.024 59.377 48.197 59.377 L 50.379 59.722 C 50.436 59.722 50.436 59.722 50.436 59.722 C 50.723 59.722 50.953 59.492 51.011 59.204 C 51.068 58.918 50.838 58.573 50.551 58.573 L 49.862 58.457 C 51.929 56.619 52.676 53.633 51.585 50.877 Z" style="stroke-miterlimit: 13; stroke-width: 3px;"/>
  <g transform="matrix(1, 0, 0, 1, -2.408987, -0.286406)">
    <g transform="matrix(0.550478, 0, 0, -0.597958, 28.952003, 48.890408)" style="">
      <line style="stroke: rgb(0, 0, 0); stroke-width: 9.12532px;" x1="51.405" y1="0.227" x2="51.405" y2="36.162" transform="matrix(-0.002261, -0.999997, 0.999997, -0.002261, 33.326773, 69.640504)"/>
    </g>
    <path d="M 111.288 56.157 L 118.319 68.333 L 104.257 68.333 L 111.288 56.157 Z" transform="matrix(-0.01378, 0.999905, -0.999905, -0.01378, 130.845459, -72.485344)" style="" bx:shape="triangle 104.257 56.157 14.062 12.176 0.5 0 1@f313b8ee"/>
  </g>
</svg>