<?xml version="1.0" encoding="utf-8"?>
<svg version="1.1" id="Layer_1" x="0px" y="0px" viewBox="0 0 80 80" style="enable-background:new 0 0 80 80;" xmlns="http://www.w3.org/2000/svg" xmlns:bx="https://boxy-svg.com">
  <style type="text/css">
	.st0{fill:none;stroke:#000000;stroke-width:3;stroke-miterlimit:10;}
	.st1{font-family:'MyriadPro-Regular';}
	.st2{font-size:32.8529px;}
</style>
  <rect x="2.942" y="6.769" width="71.256" height="70.856" transform="matrix(1, 0, -0.000459, 1, 1.529724, -2.462606)" rx="3.912" ry="3.912" style="fill: rgb(210, 227, 228);"/>
  <path class="st0" d="M 68.25 77.303 L 11.708 77.303 C 6.645 77.303 2.501 72.317 2.501 66.225 L 2.501 13.322 C 2.501 7.228 6.645 2.242 11.708 2.242 L 68.25 2.242 C 73.312 2.242 77.456 7.228 77.456 13.322 L 77.456 66.225 C 77.456 72.317 73.312 77.303 68.25 77.303 Z" style="stroke-width: 5; stroke: rgb(36, 85, 101);"/>
  <path d="M 73.723 30.799 L 105.613 86.034 L 41.832 86.034 L 73.723 30.799 Z" transform="matrix(-0.494358, -0.869259, 0.869259, -0.494358, 17.926874, 145.121475)" style="stroke: rgb(98, 1, 254); stroke-width: 3px; fill: none;" bx:shape="triangle 41.832 30.799 63.781 55.235 0.5 0 1@d44d297e"/>
  <path d="M 374.605 584.84 m -8.808 0 a 8.808 8.808 0 1 0 17.616 0 a 8.808 8.808 0 1 0 -17.616 0 Z M 374.605 584.84 m -6.606 0 a 6.606 6.606 0 0 1 13.212 0 a 6.606 6.606 0 0 1 -13.212 0 Z" style="fill: rgb(115, 20, 20);" transform="matrix(-0.458623, 0.888631, -0.888631, -0.458623, 731.93865, -32.33073)" bx:shape="ring 374.605 584.84 6.606 6.606 8.808 8.808 1@39d62d9d"/>
</svg>