<?xml version="1.0" encoding="utf-8"?>
<svg version="1.1" id="Layer_1" x="0px" y="0px" viewBox="0 0 101 112" style="enable-background:new 0 0 101 112;" xmlns="http://www.w3.org/2000/svg">
  <g>
    <ellipse cx="51.5" cy="18.3" rx="9.6" ry="9.8"/>
    <path d="M 40 71.9 L 40 101.9 C 40 104.5 42.5 106.6 45 106.6 C 47.5 106.6 50 104.5 50 101.9 L 50 73 L 52 73 L 52 101.9 C 52 104.5 54.5 106.6 57 106.6 C 59.5 106.6 62 104.5 62 101.9 L 62 71.9 L 62 64 L 40 64 L 40 71.9 Z"/>
    <g>
      <polygon points="58,41.4 58,39 54,39 54,41.4 56.1,42.5 &#9;"/>
      <path d="M69,34.5c-0.2-2-1.9-3.5-3.8-3.5H37.8c-2,0-3.7,1.5-3.8,3.5c0,0-4.3,26.6-4.3,26.7c-0.2,2,1.3,3.8,3.2,4 c2,0.2,3.7-1.3,3.9-3.3c0-0.1,3.2-23.2,3.2-23.2V62h22V39.5c0,0,3.6,22.2,3.7,22.3c0.2,2,2.2,3.5,4.1,3.3s3.6-2,3.4-4 C73.2,61,69,34.5,69,34.5z M59,42l-2.9,1.6L53,42v-4h6V42z"/>
    </g>
  </g>
</svg>