<?xml version="1.0" encoding="utf-8"?>
<svg version="1.1" id="Layer_1" x="0px" y="0px" viewBox="0 0 80 80" style="enable-background:new 0 0 80 80;" xmlns="http://www.w3.org/2000/svg" xmlns:bx="https://boxy-svg.com">
  <style type="text/css">
	.st0{fill:none;stroke:#000000;stroke-width:3;stroke-miterlimit:10;}
	.st1{font-family:'MyriadPro-Regular';}
	.st2{font-size:32.8529px;}
</style>
  <rect x="2.924" y="6.875" width="70.813" height="71.976" transform="matrix(1, 0, -0.000459, 1, 1.701047, -3.4582)" rx="3.912" ry="3.912" style="fill: rgba(0, 68, 102, 0.28);"/>
  <path class="st0" d="M 68.077 77.396 L 11.73 77.396 C 6.686 77.396 2.556 72.41 2.556 66.317 L 2.556 13.415 C 2.556 7.322 6.686 2.336 11.73 2.336 L 68.077 2.336 C 73.123 2.336 77.252 7.322 77.252 13.415 L 77.252 66.317 C 77.252 72.41 73.123 77.396 68.077 77.396 Z" style="stroke-width: 5; stroke: rgb(0, 68, 102);"/>
  <ellipse style="fill: rgb(216, 216, 216); stroke: rgb(0, 0, 0); stroke-width: 2px;" cx="31.949" cy="32.519" rx="16.059" ry="19.831"/>
  <ellipse style="stroke: rgb(0, 0, 0); stroke-width: 2px; fill: rgb(62, 207, 0);" cx="49.401" cy="31.669" rx="16.326" ry="19.831"/>
  <path style="stroke: rgba(0, 0, 0, 0.95); stroke-width: 2px; stroke-opacity: 0.99; fill: rgb(62, 207, 0);" d="M 39.617 16.058 C 45.885 16.063 49.79 29.651 46.656 40.517 C 45.501 44.515 43.56 47.343 41.303 48.301"/>
  <g style="" transform="matrix(1.313011, 0, 0, 0.678333, -6.638353, 39.203857)">
    <g transform="matrix(0.821575, 0, 0, 0.995294, -8.626014, 16.978941)" style="">
      <line style="stroke: rgb(0, 0, 0); stroke-width: 9.12532px;" x1="51.405" y1="0.227" x2="51.405" y2="36.162" transform="matrix(-0.002261, -0.999997, 0.999997, -0.002261, 33.326773, 69.640504)"/>
    </g>
    <path d="M 195.926 52.09 L 208.303 63.385 L 183.548 63.385 L 195.926 52.09 Z" transform="matrix(-0.00726, 0.999974, -0.999836, -0.026156, 107.455696, -159.540451)" style="" bx:shape="triangle 183.548 52.09 24.755 11.295 0.5 0 1@1b812708"/>
  </g>
</svg>