<svg xmlns="http://www.w3.org/2000/svg" viewBox="358 265 64 64">
<polyline opacity="0.5" fill="#92278F" points="417.486,281.498 417.486,313.609 389.676,329.666 361.866,313.609 361.866,281.498
	389.676,265.442 "/>
<g>
	<defs>
		<rect id="SVGID_5_" x="372.661" y="280.007" width="35.374" height="35.403"/>
	</defs>
	<path fill="#FFFFFF" d="M387.134,308.547l-0.804-0.297c0.063-0.585,0.044-1.183-0.066-1.777
		l0.775-0.356c0.486-0.222,0.697-0.799,0.474-1.284l-0.453-0.983c-0.223-0.483-0.799-0.696-1.283-0.473L385,303.732
		c-0.38-0.469-0.82-0.873-1.307-1.205l0.296-0.802c0.185-0.501-0.072-1.058-0.571-1.245l-1.016-0.374
		c-0.485-0.178-1.064,0.09-1.242,0.571l-0.296,0.803c-0.585-0.061-1.182-0.04-1.777,0.069l-0.356-0.775
		c-0.223-0.485-0.799-0.698-1.283-0.475l-0.984,0.452c-0.484,0.225-0.697,0.801-0.474,1.285l0.357,0.773
		c-0.468,0.382-0.873,0.822-1.207,1.307l-0.801-0.295c-0.484-0.181-1.064,0.086-1.244,0.571l-0.374,1.017
		c-0.09,0.242-0.079,0.504,0.028,0.74c0.108,0.233,0.301,0.412,0.543,0.502l0.805,0.295c-0.065,0.587-0.044,1.186,0.066,1.777
		l-0.776,0.357c-0.484,0.223-0.695,0.8-0.475,1.282l0.455,0.983c0.223,0.486,0.797,0.697,1.281,0.475l0.778-0.357
		c0.379,0.47,0.82,0.874,1.306,1.208l-0.296,0.801c-0.091,0.241-0.079,0.505,0.029,0.739c0.107,0.234,0.301,0.414,0.543,0.504
		l1.017,0.375c0.241,0.089,0.504,0.079,0.739-0.029c0.235-0.107,0.413-0.301,0.502-0.544l0.296-0.804
		c0.586,0.064,1.183,0.043,1.777-0.065l0.357,0.774c0.223,0.485,0.798,0.699,1.283,0.475l0.983-0.453
		c0.484-0.222,0.697-0.799,0.473-1.281l-0.358-0.777c0.47-0.38,0.874-0.82,1.207-1.307l0.803,0.299
		c0.243,0.088,0.504,0.078,0.741-0.031c0.232-0.109,0.412-0.301,0.5-0.543l0.375-1.016
		C387.891,309.289,387.634,308.73,387.134,308.547 M381.814,311.073c-0.507,0.233-1.045,0.351-1.599,0.351
		c-1.489,0-2.854-0.873-3.476-2.223c-0.881-1.92-0.041-4.193,1.874-5.074c0.507-0.236,1.044-0.352,1.598-0.352
		c1.489,0,2.854,0.871,3.477,2.223C384.57,307.914,383.729,310.191,381.814,311.073"/>
	<path fill="#FFFFFF" d="M406.842,294.291l-1.352-0.497c0.109-0.985,0.072-1.989-0.113-2.988l1.305-0.6
		c0.814-0.373,1.172-1.343,0.797-2.16l-0.761-1.652c-0.376-0.813-1.343-1.172-2.157-0.797l-1.305,0.603
		c-0.639-0.791-1.381-1.469-2.196-2.03l0.498-1.349c0.31-0.841-0.122-1.777-0.962-2.089l-1.707-0.631
		c-0.816-0.299-1.789,0.149-2.088,0.962l-0.5,1.351c-0.984-0.106-1.988-0.071-2.987,0.112l-0.6-1.302
		c-0.375-0.815-1.343-1.173-2.157-0.797l-1.654,0.76c-0.815,0.376-1.171,1.344-0.798,2.158l0.603,1.304
		c-0.789,0.639-1.468,1.38-2.029,2.198l-1.347-0.499c-0.815-0.302-1.789,0.147-2.091,0.961l-0.629,1.709
		c-0.151,0.408-0.135,0.849,0.048,1.243c0.182,0.395,0.508,0.696,0.913,0.844l1.35,0.5c-0.107,0.983-0.072,1.99,0.115,2.987
		l-1.305,0.6c-0.814,0.376-1.172,1.344-0.796,2.155l0.761,1.655c0.375,0.812,1.343,1.172,2.158,0.797l1.303-0.602
		c0.639,0.791,1.38,1.471,2.198,2.029l-0.499,1.348c-0.151,0.408-0.133,0.85,0.048,1.244c0.181,0.395,0.507,0.695,0.913,0.846
		l1.708,0.631c0.409,0.148,0.85,0.133,1.243-0.047c0.396-0.183,0.696-0.506,0.846-0.916l0.499-1.35
		c0.983,0.107,1.989,0.072,2.987-0.113l0.602,1.305c0.374,0.814,1.343,1.173,2.157,0.797l1.652-0.762
		c0.814-0.376,1.17-1.342,0.795-2.156l-0.6-1.306c0.789-0.639,1.47-1.379,2.029-2.194l1.349,0.499
		c0.407,0.147,0.849,0.132,1.244-0.05c0.394-0.182,0.694-0.508,0.844-0.914l0.632-1.708
		C408.114,295.54,407.683,294.602,406.842,294.291 M397.898,298.54c-0.852,0.391-1.758,0.591-2.688,0.591
		c-2.504,0-4.798-1.469-5.844-3.742c-1.483-3.221-0.071-7.048,3.149-8.531c0.852-0.393,1.755-0.591,2.687-0.591
		c2.504,0,4.798,1.467,5.844,3.739C402.529,293.23,401.117,297.055,397.898,298.54"/>
</g>
<line fill="none" x1="417.486" y1="281.498" x2="417.486" y2="313.609"/>
</svg>
