<svg xmlns="http://www.w3.org/2000/svg" viewBox="268 358 64 64">
<g>
	<polygon fill="#FCAF17" points="327.426,405.715 299.669,421.741 271.909,405.715 271.909,373.662 299.669,357.635
		327.426,373.662 	"/>
	<g>
		<defs>
			<rect id="SVGID_1_" x="278.344" y="367.068" width="42.701" height="45.434"/>
		</defs>
		<path fill="#FFFFFF" d="M300.473,367.067c-1.641,0-3.178,0.73-4.499,1.939
			c-1.32,1.211-2.458,2.903-3.405,4.956c-0.183,0.396-0.356,0.808-0.523,1.229c-0.449-0.065-0.891-0.122-1.323-0.162
			c-0.704-0.063-1.385-0.095-2.045-0.089c-1.446,0.009-2.774,0.189-3.949,0.56c-1.708,0.539-3.109,1.505-3.929,2.926
			c-0.822,1.421-0.957,3.118-0.569,4.867c0.387,1.749,1.284,3.579,2.59,5.426c0.25,0.356,0.52,0.71,0.8,1.065
			c-0.281,0.356-0.551,0.711-0.801,1.065c-1.305,1.848-2.203,3.678-2.589,5.428c-0.116,0.518-0.183,1.031-0.201,1.535
			c-1.003,0.586-1.686,1.673-1.686,2.908c0,1.851,1.517,3.367,3.366,3.367c0.651,0,1.26-0.191,1.779-0.517
			c0.39,0.193,0.804,0.358,1.241,0.496c1.708,0.54,3.742,0.677,5.994,0.471c0.432-0.038,0.874-0.094,1.323-0.159
			c0.167,0.421,0.34,0.833,0.523,1.228c0.947,2.052,2.084,3.744,3.405,4.954c1.321,1.211,2.858,1.941,4.499,1.941
			c1.64,0,3.178-0.73,4.499-1.941c1.32-1.21,2.456-2.902,3.405-4.954c0.182-0.395,0.354-0.807,0.521-1.226
			c0.449,0.063,0.894,0.119,1.324,0.16c0.039,0.004,0.074,0.005,0.112,0.008c0.327,1.012,1.286,1.752,2.399,1.752
			c1.191,0,2.199-0.846,2.46-1.965c0.353-0.074,0.694-0.164,1.024-0.268c1.709-0.537,3.109-1.504,3.93-2.925
			c0.819-1.421,0.955-3.117,0.568-4.864c-0.389-1.75-1.284-3.582-2.592-5.429c-0.249-0.354-0.52-0.71-0.8-1.066
			c0.28-0.355,0.551-0.71,0.8-1.066c1.306-1.847,2.203-3.677,2.592-5.426c0.387-1.749,0.251-3.446-0.568-4.867
			c-0.82-1.421-2.223-2.387-3.93-2.926c-1.176-0.37-2.504-0.551-3.95-0.561c-0.661-0.005-1.344,0.026-2.046,0.09
			c-0.431,0.04-0.875,0.097-1.322,0.162c-0.17-0.42-0.342-0.833-0.523-1.228c-0.948-2.052-2.085-3.744-3.405-4.956
			C303.651,367.797,302.113,367.067,300.473,367.067 M300.473,368.75c1.148,0,2.266,0.493,3.362,1.497
			c1.095,1.005,2.134,2.516,3.014,4.421c0.122,0.266,0.241,0.54,0.356,0.822c-1.55,0.32-3.168,0.78-4.828,1.377
			c-0.479-0.553-1.173-0.871-1.904-0.872c-0.731,0.001-1.428,0.317-1.906,0.87c-1.658-0.595-3.277-1.056-4.826-1.375
			c0.115-0.281,0.234-0.556,0.356-0.822c0.879-1.906,1.92-3.416,3.015-4.421C298.207,369.243,299.325,368.75,300.473,368.75
			 M311.892,376.625c1.462-0.019,2.757,0.145,3.819,0.479c1.417,0.448,2.404,1.168,2.98,2.163c0.573,0.994,0.703,2.21,0.382,3.659
			c-0.323,1.45-1.112,3.106-2.322,4.82c-0.169,0.24-0.349,0.479-0.53,0.72c-1.453-1.631-3.205-3.244-5.199-4.771
			c-0.326-2.495-0.849-4.815-1.535-6.89c0.3-0.04,0.6-0.075,0.891-0.101C310.9,376.657,311.404,376.63,311.892,376.625
			 M289.055,376.625c0.487,0.006,0.994,0.033,1.516,0.081c0.292,0.027,0.588,0.062,0.889,0.101
			c-0.687,2.074-1.208,4.395-1.533,6.889c-1.998,1.529-3.746,3.142-5.198,4.773c-0.187-0.242-0.363-0.482-0.534-0.721
			c-1.209-1.714-1.999-3.367-2.321-4.819c-0.321-1.449-0.189-2.666,0.384-3.66c0.573-0.994,1.562-1.716,2.979-2.162
			C286.298,376.771,287.593,376.606,289.055,376.625 M307.807,377.085c0.535,1.58,0.978,3.337,1.303,5.226
			c-1.01-0.69-2.063-1.359-3.167-1.998c-0.984-0.569-1.973-1.094-2.956-1.574c0.007-0.073,0.01-0.147,0.011-0.22
			c-0.001-0.026-0.002-0.054-0.003-0.08C304.662,377.84,306.278,377.387,307.807,377.085 M293.141,377.086
			c1.525,0.303,3.144,0.758,4.812,1.354c-0.002,0.027-0.004,0.054-0.004,0.08c0,0.074,0.004,0.146,0.01,0.219
			c-0.983,0.48-1.97,1.005-2.955,1.573c-1.105,0.638-2.161,1.307-3.166,1.999C292.163,380.422,292.604,378.667,293.141,377.086
			 M302.286,380.271c0.937,0.458,1.877,0.957,2.815,1.499c1.547,0.893,2.994,1.849,4.332,2.841c0.189,1.654,0.295,3.389,0.295,5.173
			c0,1.786-0.105,3.518-0.295,5.175c-1.338,0.993-2.787,1.948-4.332,2.841c-1.548,0.893-3.101,1.67-4.628,2.332
			c-1.529-0.662-3.081-1.439-4.627-2.332c-1.547-0.892-2.995-1.848-4.335-2.841c-0.19-1.657-0.294-3.39-0.294-5.175
			c0-1.785,0.104-3.519,0.294-5.173c1.34-0.993,2.788-1.949,4.335-2.842c0.936-0.541,1.876-1.039,2.811-1.497
			c0.476,0.494,1.13,0.771,1.816,0.771C301.157,381.042,301.811,380.766,302.286,380.271 M289.681,386.045
			c-0.095,1.218-0.146,2.466-0.146,3.74c0,1.275,0.051,2.523,0.146,3.741c-1.473-1.224-2.773-2.486-3.871-3.741
			C286.908,388.531,288.208,387.269,289.681,386.045 M311.264,386.045c1.473,1.224,2.772,2.486,3.873,3.739
			c-1.101,1.256-2.4,2.517-3.873,3.742c0.096-1.217,0.146-2.465,0.146-3.741S311.359,387.262,311.264,386.045 M284.728,391.102
			c1.452,1.631,3.2,3.244,5.198,4.773c0.326,2.495,0.848,4.815,1.533,6.888c-0.3,0.04-0.597,0.075-0.889,0.101
			c-2.09,0.191-3.918,0.047-5.334-0.4c-0.19-0.06-0.37-0.123-0.542-0.193c0.243-0.465,0.383-0.988,0.383-1.547
			c0-1.836-1.496-3.343-3.327-3.364c0.028-0.233,0.069-0.471,0.124-0.716c0.322-1.452,1.112-3.107,2.321-4.821
			C284.364,391.582,284.542,391.341,284.728,391.102 M316.221,391.102c0.184,0.24,0.363,0.481,0.532,0.72
			c1.208,1.715,1.999,3.37,2.322,4.821c0.319,1.451,0.189,2.666-0.384,3.66c-0.576,0.994-1.562,1.715-2.979,2.162
			c-0.23,0.072-0.473,0.133-0.722,0.189c-0.419-0.827-1.276-1.401-2.257-1.401c-1.062,0-1.981,0.674-2.35,1.612h-0.008
			c-0.291-0.025-0.589-0.062-0.891-0.102c0.687-2.074,1.209-4.395,1.535-6.889C313.02,394.345,314.768,392.733,316.221,391.102
			L316.221,391.102z M309.109,397.26c-0.325,1.889-0.768,3.643-1.303,5.224c-1.639-0.325-3.381-0.819-5.178-1.481
			c1.102-0.529,2.209-1.107,3.313-1.746C307.046,398.619,308.1,397.95,309.109,397.26 M291.838,397.26
			c1.006,0.69,2.062,1.36,3.167,1.998c1.104,0.638,2.209,1.215,3.311,1.742c-1.797,0.664-3.539,1.158-5.174,1.482
			C292.604,400.902,292.163,399.146,291.838,397.26 M281.71,399.041c0.939,0,1.683,0.741,1.683,1.68
			c0,0.939-0.744,1.684-1.683,1.684c-0.939,0-1.683-0.744-1.683-1.684C280.027,399.782,280.771,399.041,281.71,399.041
			 M300.472,401.963c2.323,0.965,4.593,1.673,6.733,2.117c-0.115,0.279-0.234,0.554-0.356,0.818
			c-0.879,1.906-1.918,3.42-3.014,4.422c-1.096,1.003-2.214,1.499-3.362,1.499c-1.148,0-2.266-0.496-3.361-1.499
			c-1.094-1.002-2.136-2.514-3.015-4.422c-0.123-0.265-0.242-0.539-0.356-0.818C295.879,403.636,298.15,402.928,300.472,401.963
			 M312.734,402.934c0.477,0,0.844,0.367,0.844,0.844c0,0.474-0.367,0.84-0.844,0.84c-0.475,0-0.843-0.366-0.843-0.84
			C311.892,403.301,312.26,402.934,312.734,402.934"/>
	</g>
</g>
</svg>
