<svg xmlns="http://www.w3.org/2000/svg" viewBox="268 358 64 64">
<polygon opacity="0.5" fill="#F7D00E" points="326.566,407.107 299.004,423.018 271.442,407.107 271.442,375.28 299.004,359.367 326.566,375.28
	"/>
<path fill="#FFFFFF" d="M299.451,371.388l-18.468,11.542h36.933L299.451,371.388z M309.84,385.239l1.154,2.308v13.85h4.615v-13.85
	l1.154-2.308H309.84z M300.605,385.239l1.153,2.308v13.85h4.617v-13.85l1.154-2.308H300.605z M291.371,385.239l1.153,2.308v13.85
	h4.618v-13.85l1.153-2.308H291.371z M282.138,385.239l1.152,2.308v13.85h4.618v-13.85l1.153-2.308H282.138z M282.138,403.705
	l-1.155,4.619h36.933l-1.152-4.619H282.138z M301.758,378.314c0,1.275-1.032,2.308-2.308,2.308s-2.309-1.032-2.309-2.308
	s1.033-2.309,2.309-2.309S301.758,377.039,301.758,378.314"/>
</svg>
