<svg xmlns="http://www.w3.org/2000/svg" viewBox="268 358 64 64">
<g>
	<polygon fill="#00A651" points="326.964,406.57 299.498,422.43 272.031,406.57 272.031,374.856 299.498,358.998 326.964,374.856
		"/>
	<g>
		<defs>
			<rect id="SVGID_1_" x="283.501" y="375.842" width="32.383" height="28.927"/>
		</defs>
		<path fill="#FFFFFF" d="M314.052,394.161h-6.226v-2.164h6.226V394.161z M305.039,394.209h-6.225
			v-2.164h6.225V394.209z M296.241,394.129h-6.224v-2.166h6.224V394.129z M314.848,380.538h-7.98v-3.659h7.807
			c0.096,0,0.174,0.078,0.174,0.172V380.538z M314.848,385.379h-7.98v-3.804h7.98V385.379z M314.848,390.305h-7.98v-3.889h7.98
			V390.305z M314.848,394.939h-7.98v-3.596h7.98V394.939z M314.848,399.381h-7.98v-3.405h7.98V399.381z M314.848,403.558
			c0,0.062-0.035,0.112-0.082,0.144h-7.898v-3.283h7.98V403.558z M305.83,380.538h-7.779v-3.659h7.779V380.538z M305.83,385.379
			h-7.779v-3.804h7.779V385.379z M305.83,390.305h-7.779v-3.889h7.779V390.305z M305.83,394.939h-7.779v-3.596h7.779V394.939z
			 M305.83,399.381h-7.779v-3.405h7.779V399.381z M305.83,403.701h-7.779v-3.283h7.779V403.701z M297.012,380.538h-7.691v-3.659
			h7.691V380.538z M297.012,385.379h-7.691v-3.804h7.691V385.379z M297.012,390.305h-7.691v-3.889h7.691V390.305z M297.012,394.939
			h-7.691v-3.596h7.691V394.939z M297.012,399.381h-7.691v-3.405h7.691V399.381z M297.012,403.701h-7.691v-3.283h7.691V403.701z
			 M288.282,385.379h-3.745v-3.804h3.745V385.379z M288.282,390.305h-3.745v-3.889h3.745V390.305z M288.282,394.939h-3.745v-3.596
			h3.745V394.939z M288.282,399.381h-3.745v-3.405h3.745V399.381z M288.282,403.701h-3.661c-0.049-0.028-0.083-0.082-0.083-0.144
			v-3.14h3.745V403.701z M314.674,375.842h-29.963c-0.668,0-1.209,0.543-1.209,1.209v26.506c0,0.409,0.206,0.771,0.519,0.991v0.189
			h0.432c0.083,0.018,0.168,0.031,0.258,0.031h29.963c0.09,0,0.174-0.014,0.258-0.031h0.059v-0.018
			c0.514-0.141,0.895-0.605,0.895-1.161v-26.506C315.885,376.385,315.342,375.842,314.674,375.842"/>
	</g>
	<polyline fill="none" points="272.031,374.856 299.498,358.998 326.964,374.856 326.964,406.57 299.498,422.43 272.031,406.57 	"/>
</g>
</svg>
