<svg xmlns="http://www.w3.org/2000/svg" viewBox="358 268 64 64">
<g>
    <polygon opacity="0.5" fill="#C81D6F" points="361.994,315.365 361.994,283.216 389.836,267.142 417.678,283.216 417.678,315.365 389.836,331.439
    "/>
<polygon fill="#C81D6F" points="388.353,311.787 388.353,283.7 402.781,283.7 409.876,290.8 409.876,311.787 "/>
<path fill="#FFFFFF" d="M402.396,284.624l6.557,6.559v19.68h-19.676v-26.239H402.396z M403.163,282.776h-0.767h-13.12h-1.847v1.847
    v26.239v1.847h1.847h19.676h1.848v-1.847v-19.68v-0.765l-0.543-0.541l-6.553-6.559L403.163,282.776z"/>
<polygon fill="#FFFFFF" points="402.396,291.183 402.396,284.624 408.953,291.183 "/>
<path fill="#C81D6F" d="M372.733,316.254c-1.683,0-3.052-1.367-3.052-3.05v-17.171c0-1.683,1.369-3.052,3.052-3.052h26.645
    c1.683,0,3.052,1.369,3.052,3.052v17.171c0,1.683-1.369,3.05-3.052,3.05H372.733z"/>
<path fill="#FFFFFF" d="M399.378,293.904c1.171,0,2.129,0.958,2.129,2.128v17.171c0,1.169-0.958,2.127-2.129,2.127h-26.645
    c-1.17,0-2.127-0.958-2.127-2.127v-17.171c0-1.17,0.957-2.128,2.127-2.128H399.378 M399.378,292.057h-26.645
    c-2.192,0-3.975,1.783-3.975,3.976v17.171c0,2.191,1.783,3.974,3.975,3.974h26.645c2.192,0,3.976-1.782,3.976-3.974v-17.171
    C403.354,293.84,401.57,292.057,399.378,292.057"/>
<rect x="372.32" y="297.042" fill="#C81D6F" width="24.094" height="15.699"/>
<line fill="none" stroke="#FFFFFF" stroke-width="3.858" stroke-miterlimit="10" x1="373.499" y1="300.819" x2="398.543" y2="300.819"/>
<polygon fill="none" points="408.566,314.266 389.566,325.234 370.566,314.266 370.566,292.326 389.566,281.356 408.566,292.326 "/>
</g>
</svg>
