
<svg xmlns="http://www.w3.org/2000/svg" viewBox="268 359 64 64">
<g>
	<polygon opacity="0.5" fill="#74CDD6" points="327.041,406.757 299.574,422.614 272.108,406.757 272.108,375.04 299.574,359.183 327.041,375.04
		"/>
	<path fill="#FFFFFF" d="M317.977,380.834C317.977,380.79,317.977,380.79,317.977,380.834c0-0.089-0.045-0.133-0.045-0.178v-0.044
		c0-0.046-0.045-0.09-0.045-0.134v-0.045c0-0.044-0.044-0.044-0.044-0.089c0,0,0-0.044-0.045-0.044c0,0,0-0.045-0.044-0.045
		c-0.045-0.045-0.045-0.089-0.089-0.134s-0.09-0.089-0.134-0.133h-0.046c-0.042-0.044-0.088-0.044-0.132-0.09h-0.044
		c-0.045-0.044-0.09-0.044-0.135-0.089l-5.475-2.625v-1.692v-0.178v-0.044c0-0.046,0-0.089-0.044-0.135v-0.043
		c0-0.047-0.046-0.09-0.046-0.133v-0.046c0-0.044-0.043-0.044-0.043-0.09c0,0,0-0.044-0.046-0.044c-0.044,0,0-0.045-0.044-0.045
		c-0.042-0.044-0.042-0.089-0.089-0.133l-0.133-0.133h-0.045c-0.044-0.045-0.089-0.045-0.089-0.09h-0.044
		c-0.044-0.045-0.09-0.045-0.134-0.088l-11.127-5.343c-0.356-0.178-0.758-0.178-1.112,0l-11.128,5.343
		c-0.044,0.043-0.089,0.043-0.133,0.088c-0.045,0.045-0.09,0.045-0.135,0.09h-0.044c-0.044,0.043-0.088,0.087-0.134,0.133
		c-0.044,0.044-0.044,0.089-0.089,0.133c0,0,0,0.045-0.044,0.045c0,0,0,0.044-0.045,0.044c0,0.046-0.045,0.046-0.045,0.09v0.046
		c0,0.043-0.043,0.086-0.043,0.133v0.043c0,0.046-0.045,0.089-0.045,0.135v0.044v0.178v1.692l-5.341,2.625
		c-0.046,0.045-0.09,0.045-0.134,0.089c-0.045,0.046-0.089,0.046-0.135,0.09h-0.043c-0.046,0.044-0.09,0.088-0.135,0.133
		c-0.044,0.045-0.044,0.089-0.089,0.134c0,0,0,0.045-0.044,0.045c0,0,0,0.044-0.044,0.044c0,0.045-0.045,0.045-0.045,0.089v0.045
		c0,0.044-0.044,0.088-0.044,0.134v0.044c0,0.045-0.046,0.089-0.046,0.134v0.044v0.179v21.408c0,0.489,0.268,0.891,0.668,1.157
		l17.314,9.613c0.044,0.047,0.089,0.047,0.132,0.089h0.046c0.044,0,0.088,0.045,0.134,0.045h0.043c0.046,0,0.09,0,0.136,0.045h0.043
		h0.134h0.134h0.044c0.045,0,0.09,0,0.134-0.045h0.044c0.045,0,0.09-0.045,0.134-0.045h0.045c0.044,0,0.09-0.042,0.133-0.089
		l17.314-9.613c0.4-0.223,0.668-0.668,0.668-1.157v-21.408C318.021,380.923,318.021,380.879,317.977,380.834 M313.882,381.057
		l-2.092,1.157v-2.137L313.882,381.057z M300.662,388.4v-5.964l8.503-4.717v5.963L300.662,388.4z M289.58,377.72l8.502,4.717v5.964
		l-8.502-4.718V377.72z M299.372,371.577l8.279,3.96l-8.279,4.63l-8.279-4.584L299.372,371.577z M286.954,382.214l-2.092-1.157
		l2.092-0.979V382.214z M283.35,383.193l4.272,2.358l10.415,5.787v0.891v17.579l-14.688-8.189V383.193z M300.662,409.809v-17.536
		v-0.89l10.416-5.787l4.272-2.357v18.426L300.662,409.809z"/>
</g>
</svg>
