<svg xmlns="http://www.w3.org/2000/svg" viewBox="268 358 64 64">
<g>
	<polygon opacity="0.5" fill="#72BF44" points="327.463,406.522 299.685,422.562 271.908,406.522 271.908,374.447 299.685,358.408
		327.463,374.447"/>
	<path fill="#FFFFFF" d="M299.402,393.059c0.524-1.243,0.968-2.218,1.332-2.924c0.274-0.525,0.534-0.968,0.772-1.327
		c0.239-0.358,0.53-0.71,0.873-1.051c0.34-0.343,0.735-0.6,1.18-0.771c0.443-0.173,0.941-0.258,1.487-0.258h4.381v3.286
		c0,0.148,0.054,0.277,0.16,0.387c0.112,0.106,0.238,0.162,0.386,0.162c0.16,0,0.294-0.052,0.396-0.154l5.475-5.477
		c0.103-0.103,0.152-0.234,0.152-0.394c0-0.158-0.05-0.29-0.152-0.393l-5.459-5.458c-0.137-0.115-0.274-0.171-0.412-0.171
		c-0.158,0-0.29,0.051-0.395,0.153c-0.102,0.103-0.151,0.233-0.151,0.394v3.285h-4.381c-0.773,0-1.505,0.095-2.191,0.282
		c-0.683,0.188-1.291,0.429-1.821,0.719c-0.529,0.291-1.041,0.682-1.539,1.173c-0.496,0.491-0.918,0.964-1.266,1.419
		c-0.349,0.456-0.713,1.026-1.096,1.713c-0.381,0.683-0.689,1.282-0.923,1.795c-0.235,0.513-0.517,1.146-0.849,1.898
		c-0.523,1.243-0.968,2.221-1.333,2.928c-0.273,0.523-0.531,0.965-0.771,1.324s-0.529,0.712-0.87,1.053
		c-0.343,0.344-0.738,0.601-1.183,0.771s-0.94,0.257-1.487,0.257h-3.834c-0.16,0-0.291,0.052-0.395,0.153
		c-0.102,0.102-0.152,0.234-0.152,0.393v3.286c0,0.16,0.051,0.291,0.155,0.394c0.103,0.104,0.233,0.154,0.394,0.154h3.832
		c0.774,0,1.508-0.096,2.188-0.283c0.685-0.188,1.293-0.429,1.823-0.719s1.044-0.682,1.542-1.173
		c0.495-0.488,0.915-0.963,1.265-1.418c0.346-0.457,0.713-1.028,1.095-1.711c0.382-0.685,0.689-1.283,0.924-1.798
		C298.788,394.444,299.071,393.812,299.402,393.059"/>
	<path fill="#FFFFFF" d="M285.885,386.728h3.834c0.5,0,0.965,0.085,1.393,0.25c0.429,0.165,0.788,0.366,1.079,0.599
		c0.289,0.234,0.581,0.556,0.874,0.967c0.288,0.41,0.52,0.772,0.69,1.086c0.172,0.313,0.382,0.729,0.634,1.239
		c0.878-2.063,1.659-3.62,2.343-4.67c-1.823-2.567-4.163-3.85-7.013-3.85h-3.834c-0.16,0-0.289,0.052-0.395,0.154
		c-0.102,0.102-0.152,0.232-0.152,0.393v3.286c0,0.158,0.051,0.291,0.152,0.394C285.596,386.676,285.725,386.728,285.885,386.728"/>
	<path fill="#FFFFFF" d="M310.386,394.018c-0.137-0.113-0.273-0.171-0.412-0.171c-0.158,0-0.291,0.052-0.393,0.154
		c-0.104,0.103-0.153,0.234-0.153,0.394v3.285h-4.381c-0.501,0-0.966-0.084-1.394-0.249c-0.427-0.166-0.788-0.363-1.079-0.6
		c-0.289-0.233-0.579-0.556-0.87-0.965c-0.292-0.411-0.522-0.773-0.695-1.087c-0.171-0.313-0.382-0.728-0.632-1.241
		c-0.88,2.053-1.654,3.61-2.327,4.671c0.307,0.445,0.628,0.843,0.958,1.189c0.331,0.35,0.645,0.654,0.942,0.915
		c0.297,0.262,0.631,0.49,1.01,0.685c0.375,0.195,0.705,0.356,0.99,0.489c0.287,0.128,0.646,0.235,1.079,0.315
		c0.433,0.079,0.799,0.14,1.094,0.179c0.299,0.039,0.703,0.068,1.216,0.086s0.93,0.023,1.249,0.018
		c0.317-0.005,0.781-0.012,1.387-0.018s1.089-0.008,1.453-0.008v3.284c0,0.148,0.054,0.276,0.16,0.386
		c0.112,0.108,0.238,0.163,0.388,0.163c0.16,0,0.292-0.052,0.395-0.154l5.475-5.477c0.103-0.103,0.152-0.232,0.152-0.393
		s-0.05-0.292-0.152-0.395L310.386,394.018z"/>
</g>
</svg>
