<svg xmlns="http://www.w3.org/2000/svg" viewBox="268 358 64 64">
<polygon opacity="0.5" fill="#00B9F2" points="327.479,406.229 299.7,422.268 271.922,406.229 271.922,374.153 299.7,358.115 327.479,374.153"/>
<path fill="#FFFFFF" d="M320.841,390.385l-10.135-3.712v-11.298c0-0.218-0.138-0.414-0.345-0.485
    l-10.377-3.801c-0.108-0.038-0.23-0.036-0.336,0l-10.36,3.695c-0.103,0.039-0.193,0.106-0.238,0.177
    c-0.076,0.091-0.119,0.207-0.119,0.325v11.381l-10.123,3.613c-0.105,0.036-0.196,0.105-0.239,0.176
    c-0.077,0.091-0.118,0.207-0.118,0.326v11.483c0,0.217,0.138,0.411,0.342,0.482l10.366,3.572c0.108,0.039,0.229,0.039,0.336,0
    l10.323-3.555l10.302,3.555c0.108,0.039,0.229,0.039,0.336,0l10.368-3.577c0.215-0.066,0.361-0.263,0.361-0.488v-11.386
    C321.186,390.649,321.048,390.456,320.841,390.385 M308.899,385.896l-7.968,2.696v-8.545l7.968-2.92V385.896z M299.814,372.942
    l7.409,2.77l-7.4,2.741l-7.819-2.701L299.814,372.942z M289.343,393.946l-7.819-2.698l7.81-2.81l7.41,2.767L289.343,393.946z
     M298.419,401.391l-7.967,2.696v-8.544l7.967-2.922V401.391z M310.303,393.946l-7.818-2.698l7.812-2.81l7.407,2.767
    L310.303,393.946z M319.379,401.391l-7.967,2.696v-8.544l7.967-2.922V401.391z"/>
</svg>
