<svg xmlns="http://www.w3.org/2000/svg" viewBox="268 358 64 64">
<path fill="#FFFFFF" d="M309.055,388.03h-6.791c-0.346,0-0.628,0.281-0.628,0.627v6.791c0,0.346,0.282,0.627,0.628,0.627h6.791
	c0.345,0,0.627-0.281,0.627-0.627v-6.791C309.682,388.311,309.399,388.03,309.055,388.03"/>
<g>
	<polygon opacity="0.5" fill="#00AAB5" points="326.992,405.65 299.486,421.53 271.982,405.65 271.982,373.891 299.486,358.011 326.992,373.891
		"/>
	<path fill="#FFFFFF" d="M289.645,393.828h-8.812c-0.449,0-0.815,0.364-0.815,0.813v8.812c0,0.449,0.366,0.814,0.815,0.814h8.812
		c0.449,0,0.813-0.365,0.813-0.814v-8.812C290.458,394.191,290.094,393.828,289.645,393.828"/>
	<path fill="#FFFFFF" d="M303.763,393.828h-8.813c-0.45,0-0.814,0.364-0.814,0.813v8.812c0,0.449,0.365,0.814,0.814,0.814h8.813
		c0.449,0,0.814-0.365,0.814-0.814v-8.812C304.577,394.191,304.212,393.828,303.763,393.828"/>
	<path fill="#FFFFFF" d="M318.16,393.828h-8.813c-0.448,0-0.813,0.364-0.813,0.813v8.812c0,0.449,0.365,0.814,0.813,0.814h8.813
		c0.447,0,0.812-0.365,0.812-0.814v-8.812C318.973,394.191,318.607,393.828,318.16,393.828"/>
	<path fill="#FFFFFF" d="M295.088,379.009h8.814c0.451,0,0.813-0.363,0.813-0.811v-8.814c0-0.449-0.363-0.814-0.813-0.814h-8.814
		c-0.448,0-0.811,0.365-0.811,0.814v8.814C294.277,378.646,294.641,379.009,295.088,379.009"/>
	<path fill="#FFFFFF" d="M283.886,391.013h1.668c0.448,0,0.812-0.366,0.812-0.815v-3.432h11.483v3.441
		c0,0.45,0.363,0.813,0.812,0.813h1.669c0.448,0,0.812-0.364,0.812-0.813v-3.441h11.48v3.437c0,0.449,0.364,0.812,0.813,0.812h1.67
		c0.449,0,0.812-0.363,0.812-0.812v-5.917c0-0.449-0.362-0.813-0.812-0.813h-13.964v-1.127c0-0.449-0.365-0.815-0.814-0.815h-1.667
		c-0.449,0-0.812,0.366-0.812,0.815v1.127h-13.963c-0.45,0-0.812,0.364-0.812,0.813v5.913
		C283.074,390.647,283.437,391.013,283.886,391.013"/>
</g>
</svg>
