<svg xmlns="http://www.w3.org/2000/svg" viewBox="268 358 64 64">
<g>
	<polygon fill="#C657A0" points="327.278,406.16 299.519,422.188 271.761,406.16 271.761,374.108 299.519,358.082 327.278,374.108
		"/>
	<path fill="#FFFFFF" d="M297.188,373.622c0,2.057-1.667,3.722-3.722,3.722c-2.057,0-3.724-1.666-3.724-3.722
		c0-2.058,1.667-3.724,3.724-3.724C295.522,369.897,297.188,371.563,297.188,373.622"/>
	<path fill="#FFFFFF" d="M308.056,373.622c0,2.057-1.667,3.722-3.722,3.722c-2.057,0-3.723-1.666-3.723-3.722
		c0-2.058,1.667-3.724,3.723-3.724C306.389,369.897,308.056,371.563,308.056,373.622"/>
	<path fill="#FFFFFF" d="M315.355,379.617c0,2.057-1.666,3.722-3.722,3.722c-2.058,0-3.726-1.666-3.726-3.722
		c0-2.056,1.668-3.723,3.726-3.723C313.689,375.894,315.355,377.561,315.355,379.617"/>
	<path fill="#FFFFFF" d="M305.601,386.54v0.739c1.63,0.708,2.769,2.337,2.769,4.215v9.631c0,0.77-0.182,1.508-0.553,2.153v0.431
		c0,1.018,0.83,1.85,1.845,1.85h3.881c1.011,0,1.843-0.832,1.843-1.85v-7.384h0.368c1.019,0,1.85-0.831,1.85-1.846v-7.939
		c0-1.015-0.831-1.847-1.85-1.847h-8.306C306.432,384.693,305.601,385.525,305.601,386.54"/>
	<polygon fill="#C657A0" points="327.278,406.16 299.519,422.188 271.761,406.16 271.761,374.108 299.519,358.082 327.278,374.108
		"/>
	<path fill="#FFFFFF" d="M290.455,379.286c0,2.057-1.668,3.722-3.722,3.722c-2.058,0-3.723-1.666-3.723-3.722
		c0-2.057,1.666-3.724,3.723-3.724C288.787,375.562,290.455,377.229,290.455,379.286"/>
	<path fill="#FFFFFF" d="M298.075,373.289c0,2.058-1.667,3.724-3.724,3.724c-2.056,0-3.723-1.667-3.723-3.724
		c0-2.056,1.667-3.722,3.723-3.722C296.408,369.567,298.075,371.233,298.075,373.289"/>
	<path fill="#FFFFFF" d="M308.941,373.289c0,2.058-1.668,3.724-3.723,3.724c-2.057,0-3.724-1.667-3.724-3.724
		c0-2.056,1.667-3.722,3.724-3.722C307.273,369.567,308.941,371.233,308.941,373.289"/>
	<path fill="#FFFFFF" d="M282.578,396.057h0.37v7.384c0,1.017,0.831,1.846,1.846,1.846h3.878c1.015,0,1.844-0.829,1.844-1.846
		v-0.431c-0.338-0.646-0.554-1.383-0.554-2.153v-9.662c0-1.876,1.14-3.509,2.77-4.215v-0.739c0-1.015-0.831-1.847-1.847-1.847
		h-8.308c-1.016,0-1.846,0.832-1.846,1.847v7.969C280.732,395.226,281.531,396.057,282.578,396.057"/>
	<path fill="#FFFFFF" d="M316.239,379.286c0,2.057-1.667,3.722-3.722,3.722c-2.057,0-3.724-1.666-3.724-3.722
		c0-2.057,1.667-3.724,3.724-3.724C314.572,375.562,316.239,377.229,316.239,379.286"/>
	<path fill="#FFFFFF" d="M306.486,386.209v0.74c1.629,0.708,2.77,2.336,2.77,4.214v9.632c0,0.77-0.186,1.507-0.554,2.154v0.43
		c0,1.016,0.829,1.846,1.846,1.846h3.878c1.016,0,1.845-0.83,1.845-1.846v-7.385h0.37c1.016,0,1.847-0.83,1.847-1.846v-7.938
		c0-1.016-0.831-1.847-1.847-1.847h-8.308C307.318,384.363,306.486,385.193,306.486,386.209"/>
	<path fill="#FFFFFF" d="M292.763,391.194v9.662c0,1.013,0.831,1.845,1.846,1.845h0.708v8.708c0,1.017,0.83,1.849,1.846,1.849h4.955
		c1.014,0,1.845-0.832,1.845-1.849v-8.738h0.709c1.015,0,1.847-0.831,1.847-1.847v-9.63c0-1.016-0.832-1.848-1.847-1.848h-10.062
		C293.563,389.347,292.763,390.178,292.763,391.194"/>
	<path fill="#FFFFFF" d="M303.901,383.531c0,2.363-1.915,4.277-4.277,4.277c-2.361,0-4.277-1.915-4.277-4.277
		s1.917-4.276,4.277-4.276C301.987,379.255,303.901,381.168,303.901,383.531"/>
	<path fill="#FFFFFF" d="M297.188,373.622c0,2.057-1.667,3.722-3.722,3.722c-2.057,0-3.724-1.666-3.724-3.722
		c0-2.058,1.667-3.724,3.724-3.724C295.522,369.897,297.188,371.563,297.188,373.622"/>
	<path fill="#FFFFFF" d="M308.056,373.622c0,2.057-1.667,3.722-3.722,3.722c-2.057,0-3.723-1.666-3.723-3.722
		c0-2.058,1.667-3.724,3.723-3.724C306.389,369.897,308.056,371.563,308.056,373.622"/>
	<path fill="#FFFFFF" d="M315.355,379.617c0,2.057-1.666,3.722-3.722,3.722c-2.058,0-3.726-1.666-3.726-3.722
		c0-2.056,1.668-3.723,3.726-3.723C313.689,375.894,315.355,377.561,315.355,379.617"/>
	<path fill="#FFFFFF" d="M305.601,386.54v0.739c1.63,0.708,2.769,2.337,2.769,4.215v9.631c0,0.77-0.182,1.508-0.553,2.153v0.431
		c0,1.018,0.83,1.85,1.845,1.85h3.881c1.011,0,1.843-0.832,1.843-1.85v-7.384h0.368c1.019,0,1.85-0.831,1.85-1.846v-7.939
		c0-1.015-0.831-1.847-1.85-1.847h-8.306C306.432,384.693,305.601,385.525,305.601,386.54"/>
	<polyline fill="none" points="299.519,358.082 327.278,374.108 327.278,406.16 299.519,422.188 271.761,406.16 271.761,374.108
		"/>
	<path fill="#FFFFFF" d="M290.455,379.286c0,2.057-1.668,3.722-3.722,3.722c-2.058,0-3.723-1.666-3.723-3.722
		c0-2.057,1.666-3.724,3.723-3.724C288.787,375.562,290.455,377.229,290.455,379.286"/>
	<path fill="#FFFFFF" d="M298.075,373.289c0,2.058-1.667,3.724-3.724,3.724c-2.056,0-3.723-1.667-3.723-3.724
		c0-2.056,1.667-3.722,3.723-3.722C296.408,369.567,298.075,371.233,298.075,373.289"/>
	<path fill="#FFFFFF" d="M308.941,373.289c0,2.058-1.668,3.724-3.723,3.724c-2.057,0-3.724-1.667-3.724-3.724
		c0-2.056,1.667-3.722,3.724-3.722C307.273,369.567,308.941,371.233,308.941,373.289"/>
	<path fill="#FFFFFF" d="M282.578,396.057h0.37v7.384c0,1.017,0.831,1.846,1.846,1.846h3.878c1.015,0,1.844-0.829,1.844-1.846
		v-0.431c-0.338-0.646-0.554-1.383-0.554-2.153v-9.662c0-1.876,1.14-3.509,2.77-4.215v-0.739c0-1.015-0.831-1.847-1.847-1.847
		h-8.308c-1.016,0-1.846,0.832-1.846,1.847v7.969C280.732,395.226,281.531,396.057,282.578,396.057"/>
	<path fill="#FFFFFF" d="M316.239,379.286c0,2.057-1.667,3.722-3.722,3.722c-2.057,0-3.724-1.666-3.724-3.722
		c0-2.057,1.667-3.724,3.724-3.724C314.572,375.562,316.239,377.229,316.239,379.286"/>
	<path fill="#FFFFFF" d="M306.486,386.209v0.74c1.629,0.708,2.77,2.336,2.77,4.214v9.632c0,0.77-0.186,1.507-0.554,2.154v0.43
		c0,1.016,0.829,1.846,1.846,1.846h3.878c1.016,0,1.845-0.83,1.845-1.846v-7.385h0.37c1.016,0,1.847-0.83,1.847-1.846v-7.938
		c0-1.016-0.831-1.847-1.847-1.847h-8.308C307.318,384.363,306.486,385.193,306.486,386.209"/>
	<path fill="#FFFFFF" d="M292.763,391.194v9.662c0,1.013,0.831,1.845,1.846,1.845h0.708v8.708c0,1.017,0.83,1.849,1.846,1.849h4.955
		c1.014,0,1.845-0.832,1.845-1.849v-8.738h0.709c1.015,0,1.847-0.831,1.847-1.847v-9.63c0-1.016-0.832-1.848-1.847-1.848h-10.062
		C293.563,389.347,292.763,390.178,292.763,391.194"/>
	<path fill="#FFFFFF" d="M303.901,383.531c0,2.363-1.915,4.277-4.277,4.277c-2.361,0-4.277-1.915-4.277-4.277
		s1.917-4.276,4.277-4.276C301.987,379.255,303.901,381.168,303.901,383.531"/>
</g>
</svg>
