<svg xmlns="http://www.w3.org/2000/svg" viewBox="358 268 64 64">
<polygon fill="#65C19B" points="417.604,316.41 389.804,332.461 362.004,316.41 362.004,284.311 389.804,268.261 417.604,284.311
	"/>
<polygon fill="#00B27D" points="417.604,316.41 389.804,332.461 362.004,316.41 362.004,284.311 389.804,268.261 417.604,284.311
	"/>
<g>
	<path fill="#FFFFFF" d="M410.684,314.32h-29.816c-1.228,0-2.225-0.996-2.225-2.225c0-1.23,0.997-2.227,2.225-2.227h29.816
		c1.227,0,2.223,0.996,2.223,2.227C412.906,313.324,411.91,314.32,410.684,314.32L410.684,314.32z M410.684,314.32"/>
	<path fill="#FFFFFF" d="M410.684,302.646h-29.816c-1.228,0-2.225-0.996-2.225-2.227c0-1.227,0.997-2.224,2.225-2.224h29.816
		c1.227,0,2.223,0.997,2.223,2.224C412.906,301.65,411.91,302.646,410.684,302.646L410.684,302.646z M410.684,302.646"/>
	<path fill="#FFFFFF" d="M410.684,290.97h-29.816c-1.228,0-2.225-0.999-2.225-2.225c0-1.232,0.997-2.228,2.225-2.228h29.816
		c1.227,0,2.223,0.995,2.223,2.228C412.906,289.971,411.91,290.97,410.684,290.97L410.684,290.97z M410.684,290.97"/>
</g>
<text transform="matrix(1 0 0 1 370.2163 291.4497)" fill="#FFFFFF" font-size="11.4444">1</text>
<text transform="matrix(1 0 0 1 370.2163 302.8218)" fill="#FFFFFF" font-size="11.4444">2</text>
<text transform="matrix(1 0 0 1 370.2163 314.5527)" fill="#FFFFFF" font-size="11.4444">3</text>
</svg>
