<svg xmlns="http://www.w3.org/2000/svg" viewBox="268 358 64 64">
<g>
	<polygon opacity="0.5" fill="#F58220" points="326.855,406.391 299.176,422.371 271.495,406.391 271.495,374.428 299.176,358.447
		326.855,374.428"/>
	<path fill="#FFFFFF" d="M311.462,396.106c0-0.736-0.263-1.376-0.785-1.928l-15.137-15.116c-0.534-0.536-1.256-0.989-2.157-1.365
		c-0.903-0.374-1.729-0.56-2.479-0.56h-8.806c-0.732,0-1.37,0.269-1.905,0.804c-0.537,0.537-0.805,1.172-0.805,1.905v8.808
		c0,0.747,0.188,1.572,0.562,2.476c0.373,0.904,0.829,1.616,1.364,2.14l15.138,15.157c0.521,0.521,1.157,0.783,1.903,0.783
		c0.735,0,1.378-0.263,1.929-0.783l10.393-10.416C311.199,397.487,311.462,396.854,311.462,396.106 M288.08,385.828
		c-0.53,0.529-1.17,0.793-1.916,0.793c-0.749,0-1.388-0.264-1.916-0.793c-0.53-0.53-0.794-1.167-0.794-1.917
		c0-0.747,0.264-1.387,0.794-1.914c0.528-0.531,1.167-0.795,1.916-0.795c0.746,0,1.386,0.264,1.916,0.795
		c0.529,0.527,0.792,1.167,0.792,1.914C288.872,384.661,288.609,385.298,288.08,385.828"/>
	<path fill="#FFFFFF" d="M318.807,394.179l-15.134-15.114c-0.539-0.536-1.258-0.991-2.162-1.366
		c-0.901-0.374-1.729-0.561-2.477-0.561h-4.741c0.747,0,1.572,0.187,2.477,0.561c0.902,0.375,1.623,0.83,2.159,1.366l15.137,15.114
		c0.521,0.552,0.783,1.191,0.783,1.928c0,0.747-0.262,1.381-0.783,1.904l-9.95,9.949c0.423,0.438,0.798,0.757,1.122,0.954
		s0.74,0.296,1.25,0.296c0.733,0,1.376-0.263,1.926-0.783l10.394-10.416c0.524-0.523,0.785-1.157,0.785-1.904
		C319.589,395.37,319.331,394.73,318.807,394.179"/>
</g>
</svg>
