<svg version="1.1" id="Layer_1" xmlns="http://www.w3.org/2000/svg" xmlns:xlink="http://www.w3.org/1999/xlink" x="0px" y="0px"
	 viewBox="0 0 64 64" style="enable-background:new 0 0 64 64;" xml:space="preserve">
<style type="text/css">
	.st0{fill:#7670B3;opacity:0.7}
	.st1{fill:#FFFFFF;}
</style>
<g>
	<g>
		<polyline class="st0" points="32.1,64 4.6,48.2 4.6,16.4 32.1,0.6 59.4,16.4 59.4,48.2 		"/>
	</g>
	<g>
		<g>
			<path class="st1" d="M44.2,31.2c0.3,1,0.4,2.1,0.4,3.3c0,7.3-5.9,13.3-13.3,13.3C24,47.8,18,41.9,18,34.5
				c0-7.3,5.9-13.3,13.3-13.3c1.9,0,3.6,0.4,5.2,1.1l2-3.2c-2.2-1-4.6-1.6-7.2-1.6c-9.4,0-17,7.6-17,17s7.6,17,17,17s17-7.6,17-17
				c0-2.6-0.6-5.1-1.7-7.3L44.2,31.2z"/>
			<path class="st1" d="M47.3,15.6c-1.5-0.9-3.4-0.5-4.3,1L30.8,36.4l-4.1-5.9c-1-1.4-2.9-1.7-4.3-0.8c-1.4,1-1.7,2.9-0.8,4.3
				l6.8,9.7c0.6,0.8,1.5,1.3,2.5,1.3H31c1,0,2-0.6,2.5-1.5l14.8-23.7C49.3,18.4,48.8,16.5,47.3,15.6L47.3,15.6z"/>
		</g>
	</g>
</g>
</svg>
