<svg xmlns="http://www.w3.org/2000/svg" viewBox="268 358 64 64">
<g>
	<polygon fill="#F58220" points="326.641,405.497 299.443,421.2 272.245,405.497 272.245,374.092 299.443,358.391 326.641,374.092
		"/>
	<path fill="#FFFFFF" d="M290.016,376.615c-2.567,0-4.642,2.082-4.642,4.642c0,2.567,2.082,4.642,4.642,4.642
		c2.568,0,4.642-2.082,4.642-4.642C294.666,378.689,292.584,376.615,290.016,376.615 M290.016,384.254
		c-1.652,0-2.996-1.345-2.996-2.997s1.344-2.997,2.996-2.997s2.997,1.345,2.997,2.997S291.677,384.254,290.016,384.254"/>
	<path fill="#FFFFFF" d="M299.979,373.83c-0.843-0.933-2.025-1.435-3.298-1.435l-8.691-0.089c-1.854,0-3.628,0.672-4.9,2.024
		c-1.353,1.272-2.024,3.046-2.024,4.9l0.081,8.7c0.081,1.183,0.51,2.365,1.434,3.297l20.777,20.769l17.399-17.399L299.979,373.83z
		 M303.276,409.632l-19.595-19.595c-0.592-0.591-0.932-1.352-0.932-2.194l-0.081-8.611c0-1.353,0.592-2.705,1.522-3.718
		c1.013-1.013,2.365-1.604,3.799-1.604l8.611,0.081c0.842,0,1.604,0.34,2.195,0.932l19.594,19.594L303.276,409.632z"/>
</g>
</svg>
