<svg xmlns="http://www.w3.org/2000/svg" viewBox="268 358 64 64">
<g>
	<polygon opacity="0.5" fill="#63C29D" points="327.431,405.749 299.679,421.771 271.927,405.749 271.927,373.702 299.679,357.68 327.431,373.702
			"/>
	<rect x="289.822" y="379.992" fill="#FFFFFF" width="19.463" height="3.874"/>
	<path fill="#FFFFFF" d="M287.862,407.205h23.337c3.221,0,5.836-2.615,5.836-5.836v-23.336c0-3.221-2.615-5.835-5.836-5.835h-23.337
		c-3.221,0-5.834,2.614-5.834,5.835v23.336C282.028,404.59,284.642,407.205,287.862,407.205 M285.901,378.033
		c0-1.074,0.887-1.961,1.961-1.961h23.337c1.074,0,1.961,0.887,1.961,1.961v23.336c0,1.075-0.887,1.961-1.961,1.961h-23.337
		c-1.074,0-1.961-0.886-1.961-1.961V378.033z"/>
	<rect x="289.822" y="387.741" fill="#FFFFFF" width="19.463" height="3.874"/>
	<rect x="289.822" y="395.537" fill="#FFFFFF" width="11.668" height="3.874"/>
	<rect x="289.822" y="379.992" fill="#FFFFFF" width="19.463" height="3.874"/>
</g>
</svg>
