<svg xmlns="http://www.w3.org/2000/svg" viewBox="268 358 64 64">
<g>
	<polygon opacity="0.5" fill="#0066B3" points="326.744,406.756 299.49,422.49 272.236,406.756 272.236,375.286 299.49,359.551 326.744,375.286"/>
	<path fill="#FFFFFF" d="M316.868,372.695c-2.099,0-3.807,1.707-3.807,3.807c0,0.491,0.098,0.981,0.282,1.437l-6.249,6.249
		c-1.587-1.179-3.552-1.877-5.675-1.877c-1.694,0-3.35,0.451-4.81,1.308l-3.927-4.509c0.265-0.528,0.405-1.111,0.405-1.705
		c0-2.1-1.707-3.807-3.806-3.807c-2.1,0-3.806,1.707-3.806,3.807c0,2.098,1.706,3.805,3.806,3.805c0.396,0,0.785-0.061,1.157-0.181
		l3.886,4.46c-1.574,1.752-2.434,3.99-2.434,6.349c0,0.947,0.141,1.881,0.417,2.785l-8.552,6.085c-0.601-0.372-1.284-0.57-2-0.57
		c-2.1,0-3.808,1.707-3.808,3.808c0,2.099,1.708,3.804,3.808,3.804c2.098,0,3.805-1.705,3.805-3.804
		c0-0.281-0.031-0.558-0.093-0.834l8.156-5.803c1.053,1.492,2.517,2.662,4.201,3.352l-0.91,2.563
		c-1.934,0.179-3.457,1.814-3.457,3.79c0,2.098,1.708,3.807,3.806,3.807c2.099,0,3.806-1.709,3.806-3.807
		c0-1.116-0.495-2.176-1.339-2.895l0.985-2.78c0.239,0.02,0.475,0.027,0.702,0.027c1.221,0,2.408-0.229,3.534-0.682l4.089,4.929
		c-0.283,0.54-0.431,1.143-0.431,1.756c0,2.101,1.707,3.807,3.805,3.807c2.099,0,3.807-1.706,3.807-3.807
		c0-2.099-1.708-3.806-3.807-3.806c-0.377,0-0.745,0.057-1.103,0.164l-3.796-4.576c2.185-1.817,3.429-4.457,3.429-7.313
		c0-2.066-0.66-3.981-1.784-5.544l6.267-6.267c0.456,0.185,0.946,0.281,1.438,0.281c2.1,0,3.805-1.707,3.805-3.806
		C320.673,374.402,318.968,372.695,316.868,372.695 M301.42,386.699c2.834,0,5.138,2.306,5.138,5.138
		c0,2.834-2.304,5.138-5.138,5.138c-2.833,0-5.137-2.304-5.137-5.138C296.283,389.005,298.587,386.699,301.42,386.699"/>
</g>
</svg>
